<svg width="100" height="64" viewBox="0 0 100 64" fill="none" xmlns="http://www.w3.org/2000/svg">
<path d="M30.922 14.8675C32.0653 12.3165 33.852 9.11446 35.4654 6.8186C36.0007 6.05715 36.8684 5.73684 37.4936 4.80309C37.5822 3.60717 37.4984 3.08142 38.5953 2.39866C42.8491 -0.249028 49.0893 -0.338158 53.8928 0.394299C55.8122 0.686886 56.7755 1.41935 57.7712 2.93486C62.0024 3.70675 62.7118 4.94065 65.1011 8.2882C65.7943 8.22861 65.9006 8.11625 66.4984 8.6141C67.6525 9.57666 69.2225 11.3349 69.2261 12.8857C78.3728 12.4069 84.1076 14.4278 89.6208 21.8991C90.7839 21.9119 91.2917 22.5011 92.0767 23.3081C97.5935 28.9806 100.145 40.2059 99.9937 47.9024C99.936 50.8546 99.5759 55.2769 97.3199 57.4591C92.6367 61.9913 61.3326 63.1002 53.8838 63.2055C47.4258 63.3123 40.9659 63.1874 34.5166 62.8307C30.1469 62.6168 9.16254 61.2269 8.64615 55.8815C6.73794 55.048 4.81353 53.9425 3.68459 52.1233C-2.4428 42.2488 -1.05206 22.8522 8.78965 15.7496C13.7465 12.1723 25.1149 13.7879 30.922 14.8675Z" fill="#1F2937"/>
<path d="M89.6208 21.8988C90.7839 21.9116 91.2916 22.5007 92.0767 23.3077C97.5935 28.9803 100.145 40.2055 99.9936 47.9021C99.936 50.8543 99.5759 55.2765 97.3198 57.4588C92.6366 61.9909 61.3326 63.0999 53.8838 63.2052C47.4258 63.312 40.9659 63.187 34.5165 62.8303C30.1468 62.6164 9.16251 61.2266 8.64612 55.8812C26.6992 61.124 52.6108 59.806 71.3111 58.3387C77.0602 57.8877 86.3312 56.894 91.6752 54.6039C93.265 53.8754 94.4624 51.8588 94.8333 50.2147C97.0768 40.2808 94.3472 30.4783 89.6208 21.8988Z" fill="#B8B8B8"/>
<path d="M65.1011 8.288C65.7943 8.2284 65.9005 8.11605 66.4983 8.61389C67.6524 9.57646 69.2225 11.3347 69.2261 12.8855C68.893 12.9789 68.6121 12.9757 68.2628 13.0014C67.2563 12.5052 65.7853 9.4623 65.1011 8.288Z" fill="#F7F9FC"/>
<path d="M36.7353 15.947C36.7166 14.3345 36.6673 9.96042 37.8936 8.67826C38.148 8.41232 39.7876 9.4226 41.2041 9.10301C47.8009 7.61415 50.4214 5.93335 57.2184 7.24486C57.5695 7.0585 57.8234 6.93301 58.1889 6.77475C59.3952 7.23388 60.6556 9.15019 61.3272 10.2496C61.9268 11.7532 61.9448 12.5381 62.1158 14.1541L61.8566 14.1897C60.3387 14.4067 57.3822 15.2243 55.8284 15.6877C50.6608 17.2283 46.6377 17.4548 41.317 16.5893C39.7507 16.4629 38.2824 16.2018 36.7353 15.947Z" fill="#F7F9FC"/>
<path d="M41.3169 16.5892C41.343 15.5 41.5591 13.524 42.0983 12.57C42.3434 12.1367 44.6061 12.9165 45.3258 12.7998C48.98 12.2071 52.5225 10.9595 56.1938 10.3899C57.8413 10.1346 59.7822 10.6035 61.3271 10.2495C61.9267 11.7531 61.9447 12.538 62.1157 14.154L61.8565 14.1896C60.3386 14.4066 57.3822 15.2242 55.8283 15.6877C50.6608 17.2282 46.6376 17.4547 41.3169 16.5892Z" fill="#F7F9FC"/>
<path d="M15.3988 22.1726C31.6159 27.9316 49.9813 28.1182 66.7324 24.424C72.9964 23.0425 77.2619 21.2425 83.1136 19.4058C65.3117 28.7761 44.8568 32.6107 25.3064 26.5888C21.6879 25.4741 18.4309 24.0288 14.9602 22.5209L15.3988 22.1726Z" fill="#F7F9FC"/>
<path d="M23.5833 39.8808C23.8802 37.0199 24.8482 33.5793 26.0957 30.9856C25.7277 33.6131 25.4726 37.6011 25.0732 39.9094C25.1254 41.4163 24.9283 44.1414 24.8953 45.7838C24.8105 49.4279 24.8589 53.074 25.0404 56.7147C23.6789 52.9087 22.6614 43.7361 23.5833 39.8808Z" fill="#F7F9FC"/>
<path d="M23.5833 39.8808C23.8802 37.0199 24.8481 33.5793 26.0957 30.9856C25.7277 33.6131 25.4726 37.6011 25.0732 39.9094C24.9598 38.9548 25.0577 37.232 24.8892 36.5501C24.1391 37.3552 24.4198 38.8384 23.5833 39.8808Z" fill="#F7F9FC"/>
<path d="M69.7572 30.2502C69.867 30.3761 69.9661 30.4818 70.0471 30.6321C74.3576 38.7028 74.2405 45.5715 72.2221 54.0133C72.0889 54.2784 71.9953 54.4197 71.8368 54.6703C71.7072 54.4141 72.1717 47.4489 72.1393 46.4203C71.9611 40.9209 71.0086 35.5969 69.7572 30.2502Z" fill="#F7F9FC"/>
<path d="M12.434 21.0687C13.4855 21.2855 14.4136 21.7425 15.3989 22.1721L14.9603 22.5203C14.1128 22.1526 13.2302 21.5606 12.434 21.0687Z" fill="#F7F9FC"/>
</svg>
