<svg width="24" height="24" viewBox="0 0 24 24" fill="none" xmlns="http://www.w3.org/2000/svg">
<path d="M17.6856 12.9189C17.6593 10.2806 19.837 9.01531 19.9343 8.95138C18.7105 7.16196 16.8038 6.91642 16.1252 6.88848C14.5038 6.72381 12.9599 7.84352 12.1374 7.84352C11.3165 7.84352 10.0457 6.91261 8.70119 6.93632C6.9325 6.96257 5.30225 7.96502 4.39208 9.54828C2.55524 12.7347 3.92218 17.457 5.71203 20.0431C6.58706 21.3072 7.63058 22.7296 8.99964 22.6775C10.3192 22.6255 10.817 21.8241 12.4121 21.8241C14.0072 21.8241 14.4551 22.6775 15.8509 22.6509C17.2699 22.625 18.1694 21.3626 19.0373 20.0935C20.0418 18.625 20.4554 17.203 20.48 17.131C20.4491 17.1166 17.7139 16.0689 17.6856 12.9189Z" fill="#1F2937"/>
<path d="M15.063 5.17696C15.789 4.29558 16.2809 3.07088 16.1471 1.85168C15.0994 1.89402 13.8311 2.54807 13.0788 3.4286C12.4049 4.21007 11.8156 5.45425 11.9735 6.65143C13.1423 6.74202 14.3344 6.05665 15.063 5.17696Z" fill="#1F2937"/>
</svg>
