<svg width="20" height="20" viewBox="0 0 20 20" fill="none" xmlns="http://www.w3.org/2000/svg">
<g clip-path="url(#clip0_39_1517)">
<path d="M16.6667 1.66667H15.8333V0.833333C15.8333 0.61232 15.7455 0.400358 15.5893 0.244078C15.433 0.0877974 15.221 0 15 0C14.779 0 14.567 0.0877974 14.4107 0.244078C14.2545 0.400358 14.1667 0.61232 14.1667 0.833333V1.66667H5.83333V0.833333C5.83333 0.61232 5.74554 0.400358 5.58926 0.244078C5.43297 0.0877974 5.22101 0 5 0C4.77899 0 4.56702 0.0877974 4.41074 0.244078C4.25446 0.400358 4.16667 0.61232 4.16667 0.833333V1.66667H3.33333C2.44928 1.66667 1.60143 2.01786 0.976311 2.64298C0.35119 3.2681 0 4.11594 0 5L0 16.6667C0 17.5507 0.35119 18.3986 0.976311 19.0237C1.60143 19.6488 2.44928 20 3.33333 20H16.6667C17.5507 20 18.3986 19.6488 19.0237 19.0237C19.6488 18.3986 20 17.5507 20 16.6667V5C20 4.11594 19.6488 3.2681 19.0237 2.64298C18.3986 2.01786 17.5507 1.66667 16.6667 1.66667ZM18.3333 16.6667C18.3333 17.1087 18.1577 17.5326 17.8452 17.8452C17.5326 18.1577 17.1087 18.3333 16.6667 18.3333H3.33333C2.89131 18.3333 2.46738 18.1577 2.15482 17.8452C1.84226 17.5326 1.66667 17.1087 1.66667 16.6667V5C1.66667 4.55797 1.84226 4.13405 2.15482 3.82149C2.46738 3.50893 2.89131 3.33333 3.33333 3.33333H4.16667V4.16667C4.16667 4.38768 4.25446 4.59964 4.41074 4.75592C4.56702 4.9122 4.77899 5 5 5C5.22101 5 5.43297 4.9122 5.58926 4.75592C5.74554 4.59964 5.83333 4.38768 5.83333 4.16667V3.33333H14.1667V4.16667C14.1667 4.38768 14.2545 4.59964 14.4107 4.75592C14.567 4.9122 14.779 5 15 5C15.221 5 15.433 4.9122 15.5893 4.75592C15.7455 4.59964 15.8333 4.38768 15.8333 4.16667V3.33333H16.6667C17.1087 3.33333 17.5326 3.50893 17.8452 3.82149C18.1577 4.13405 18.3333 4.55797 18.3333 5V16.6667Z" fill="#2F80ED"/>
<path d="M15.8334 5.83325H4.16671C3.94569 5.83325 3.73373 5.92105 3.57745 6.07733C3.42117 6.23361 3.33337 6.44557 3.33337 6.66659C3.33337 6.8876 3.42117 7.09956 3.57745 7.25584C3.73373 7.41212 3.94569 7.49992 4.16671 7.49992H15.8334C16.0544 7.49992 16.2663 7.41212 16.4226 7.25584C16.5789 7.09956 16.6667 6.8876 16.6667 6.66659C16.6667 6.44557 16.5789 6.23361 16.4226 6.07733C16.2663 5.92105 16.0544 5.83325 15.8334 5.83325Z" fill="#2F80ED"/>
<path d="M5.83337 10H4.16671C3.94569 10 3.73373 10.0878 3.57745 10.2441C3.42117 10.4004 3.33337 10.6123 3.33337 10.8333C3.33337 11.0543 3.42117 11.2663 3.57745 11.4226C3.73373 11.5789 3.94569 11.6667 4.16671 11.6667H5.83337C6.05439 11.6667 6.26635 11.5789 6.42263 11.4226C6.57891 11.2663 6.66671 11.0543 6.66671 10.8333C6.66671 10.6123 6.57891 10.4004 6.42263 10.2441C6.26635 10.0878 6.05439 10 5.83337 10Z" fill="#2F80ED"/>
<path d="M5.83337 14.1667H4.16671C3.94569 14.1667 3.73373 14.2545 3.57745 14.4108C3.42117 14.5671 3.33337 14.7791 3.33337 15.0001C3.33337 15.2211 3.42117 15.4331 3.57745 15.5893C3.73373 15.7456 3.94569 15.8334 4.16671 15.8334H5.83337C6.05439 15.8334 6.26635 15.7456 6.42263 15.5893C6.57891 15.4331 6.66671 15.2211 6.66671 15.0001C6.66671 14.7791 6.57891 14.5671 6.42263 14.4108C6.26635 14.2545 6.05439 14.1667 5.83337 14.1667Z" fill="#2F80ED"/>
<path d="M10.8334 10H9.16671C8.94569 10 8.73373 10.0878 8.57745 10.2441C8.42117 10.4004 8.33337 10.6123 8.33337 10.8333C8.33337 11.0543 8.42117 11.2663 8.57745 11.4226C8.73373 11.5789 8.94569 11.6667 9.16671 11.6667H10.8334C11.0544 11.6667 11.2663 11.5789 11.4226 11.4226C11.5789 11.2663 11.6667 11.0543 11.6667 10.8333C11.6667 10.6123 11.5789 10.4004 11.4226 10.2441C11.2663 10.0878 11.0544 10 10.8334 10Z" fill="#2F80ED"/>
<path d="M10.8334 14.1667H9.16671C8.94569 14.1667 8.73373 14.2545 8.57745 14.4108C8.42117 14.5671 8.33337 14.7791 8.33337 15.0001C8.33337 15.2211 8.42117 15.4331 8.57745 15.5893C8.73373 15.7456 8.94569 15.8334 9.16671 15.8334H10.8334C11.0544 15.8334 11.2663 15.7456 11.4226 15.5893C11.5789 15.4331 11.6667 15.2211 11.6667 15.0001C11.6667 14.7791 11.5789 14.5671 11.4226 14.4108C11.2663 14.2545 11.0544 14.1667 10.8334 14.1667Z" fill="#2F80ED"/>
<path d="M15.8334 10H14.1667C13.9457 10 13.7337 10.0878 13.5775 10.2441C13.4212 10.4004 13.3334 10.6123 13.3334 10.8333C13.3334 11.0543 13.4212 11.2663 13.5775 11.4226C13.7337 11.5789 13.9457 11.6667 14.1667 11.6667H15.8334C16.0544 11.6667 16.2664 11.5789 16.4226 11.4226C16.5789 11.2663 16.6667 11.0543 16.6667 10.8333C16.6667 10.6123 16.5789 10.4004 16.4226 10.2441C16.2664 10.0878 16.0544 10 15.8334 10Z" fill="#2F80ED"/>
<path d="M15.8334 14.1667H14.1667C13.9457 14.1667 13.7337 14.2545 13.5775 14.4108C13.4212 14.5671 13.3334 14.7791 13.3334 15.0001C13.3334 15.2211 13.4212 15.4331 13.5775 15.5893C13.7337 15.7456 13.9457 15.8334 14.1667 15.8334H15.8334C16.0544 15.8334 16.2664 15.7456 16.4226 15.5893C16.5789 15.4331 16.6667 15.2211 16.6667 15.0001C16.6667 14.7791 16.5789 14.5671 16.4226 14.4108C16.2664 14.2545 16.0544 14.1667 15.8334 14.1667Z" fill="#2F80ED"/>
</g>
<defs>
<clipPath id="clip0_39_1517">
<rect width="20" height="20" fill="white"/>
</clipPath>
</defs>
</svg>
