<svg width="18" height="18" viewBox="0 0 18 18" fill="none" xmlns="http://www.w3.org/2000/svg">
<path d="M10.8673 2.99805H7.11994L5.24626 5.24646H2.99784C2.6003 5.24646 2.21904 5.40438 1.93793 5.68549C1.65683 5.9666 1.4989 6.34786 1.4989 6.7454V13.4906C1.4989 13.8882 1.65683 14.2694 1.93793 14.5506C2.21904 14.8317 2.6003 14.9896 2.99784 14.9896H14.9894C15.3869 14.9896 15.7682 14.8317 16.0493 14.5506C16.3304 14.2694 16.4883 13.8882 16.4883 13.4906V6.7454C16.4883 6.34786 16.3304 5.9666 16.0493 5.68549C15.7682 5.40438 15.3869 5.24646 14.9894 5.24646H12.741L10.8673 2.99805Z" stroke="white" stroke-width="1.49894" stroke-linecap="round" stroke-linejoin="round"/>
<path d="M8.99365 11.9915C10.2354 11.9915 11.2421 10.9848 11.2421 9.74304C11.2421 8.50128 10.2354 7.49463 8.99365 7.49463C7.75189 7.49463 6.74524 8.50128 6.74524 9.74304C6.74524 10.9848 7.75189 11.9915 8.99365 11.9915Z" stroke="white" stroke-width="1.49894" stroke-linecap="round" stroke-linejoin="round"/>
</svg>
