<svg width="24" height="24" viewBox="0 0 24 24" fill="none" xmlns="http://www.w3.org/2000/svg">
<path d="M19.4918 4.4115C19.4867 4.36057 19.4764 4.3103 19.461 4.2615L19.05 3.03825C18.9008 2.59091 18.6149 2.20173 18.2325 1.92571C17.8502 1.64969 17.3908 1.50078 16.9193 1.5H7.08075C6.6091 1.50083 6.14963 1.64986 5.76729 1.92602C5.38494 2.20218 5.09904 2.59152 4.95 3.039L4.53825 4.263C4.52287 4.31181 4.51257 4.36208 4.5075 4.413C4.26902 4.63617 4.07877 4.90583 3.94849 5.20534C3.81821 5.50486 3.75066 5.82788 3.75 6.1545V20.0955C3.7506 20.733 4.00412 21.3443 4.45492 21.7951C4.90572 22.2459 5.51697 22.4994 6.1545 22.5H17.8455C18.483 22.4992 19.0941 22.2456 19.5449 21.7949C19.9956 21.3441 20.2492 20.733 20.25 20.0955V6.1545C20.2494 5.82757 20.1819 5.50423 20.0515 5.20444C19.921 4.90465 19.7306 4.63478 19.4918 4.4115ZM6.36675 3.5115C6.41689 3.36201 6.51287 3.23213 6.64104 3.1403C6.76922 3.04848 6.92308 2.99938 7.08075 3H16.9193C17.0767 2.99996 17.2302 3.04949 17.358 3.14157C17.4857 3.23364 17.5812 3.3636 17.631 3.513L17.706 3.75H6.29025L6.36675 3.5115ZM18.75 20.0955C18.7498 20.3353 18.6544 20.5653 18.4849 20.7349C18.3153 20.9044 18.0853 20.9998 17.8455 21H6.1545C5.91467 20.9998 5.68472 20.9044 5.51514 20.7349C5.34556 20.5653 5.2502 20.3353 5.25 20.0955V6.1545C5.2502 5.91467 5.34556 5.68472 5.51514 5.51514C5.68472 5.34556 5.91467 5.2502 6.1545 5.25H17.8455C18.0853 5.2502 18.3153 5.34556 18.4849 5.51514C18.6544 5.68472 18.7498 5.91467 18.75 6.1545V20.0955Z" fill="#1F2937"/>
<path d="M15.75 6.75C15.5511 6.75 15.3603 6.82902 15.2197 6.96967C15.079 7.11032 15 7.30109 15 7.5V8.12475C15 9.435 13.6545 10.5 12 10.5C10.3455 10.5 9 9.435 9 8.12475V7.5C9 7.30109 8.92098 7.11032 8.78033 6.96967C8.63968 6.82902 8.44891 6.75 8.25 6.75C8.05109 6.75 7.86032 6.82902 7.71967 6.96967C7.57902 7.11032 7.5 7.30109 7.5 7.5V8.12475C7.5 10.2615 9.51825 12 12 12C14.4818 12 16.5 10.2615 16.5 8.12475V7.5C16.5 7.30109 16.421 7.11032 16.2803 6.96967C16.1397 6.82902 15.9489 6.75 15.75 6.75Z" fill="#1F2937"/>
</svg>
