<svg width="20" height="20" viewBox="0 0 20 20" fill="none" xmlns="http://www.w3.org/2000/svg">
<g clip-path="url(#clip0_58_587)">
<path d="M16.9729 2.88145L13.3251 1.66553C13.3251 2.54904 12.9741 3.39637 12.3494 4.0211C11.7247 4.64584 10.8773 4.99681 9.99383 4.99681C9.11031 4.99681 8.26299 4.64584 7.63825 4.0211C7.01351 3.39637 6.66254 2.54904 6.66254 1.66553L3.01478 2.88145C2.63783 3.00703 2.31819 3.26323 2.11355 3.60379C1.9089 3.94435 1.83274 4.34685 1.8988 4.73864L2.38184 7.62853C2.41355 7.82417 2.51399 8.00209 2.66511 8.13032C2.81624 8.25854 3.00814 8.32867 3.20633 8.3281H4.9969V16.6563C4.9969 17.5724 5.74643 18.322 6.66254 18.322H13.3251C13.7669 18.322 14.1905 18.1465 14.5029 17.8341C14.8153 17.5217 14.9908 17.0981 14.9908 16.6563V8.3281H16.7813C16.9795 8.32867 17.1714 8.25854 17.3225 8.13032C17.4737 8.00209 17.5741 7.82417 17.6058 7.62853L18.0889 4.73864C18.1549 4.34685 18.0787 3.94435 17.8741 3.60379C17.6695 3.26323 17.3498 3.00703 16.9729 2.88145Z" stroke="white" stroke-width="1.66564" stroke-linecap="round" stroke-linejoin="round"/>
</g>
<defs>
<clipPath id="clip0_58_587">
<rect width="19.9877" height="19.9877" fill="white"/>
</clipPath>
</defs>
</svg>
