<svg width="20" height="20" viewBox="0 0 20 20" fill="none" xmlns="http://www.w3.org/2000/svg">
<g clip-path="url(#clip0_58_606)">
<path d="M17.4892 6.6627C17.4889 6.37061 17.4118 6.08373 17.2656 5.83085C17.1194 5.57796 16.9093 5.36797 16.6564 5.22192L10.8266 1.89063C10.5734 1.74444 10.2862 1.66748 9.99381 1.66748C9.70143 1.66748 9.4142 1.74444 9.16099 1.89063L3.33123 5.22192C3.07828 5.36797 2.86817 5.57796 2.72199 5.83085C2.57582 6.08373 2.49871 6.37061 2.49841 6.6627V13.3253C2.49871 13.6174 2.57582 13.9042 2.72199 14.1571C2.86817 14.41 3.07828 14.62 3.33123 14.7661L9.16099 18.0973C9.4142 18.2435 9.70143 18.3205 9.99381 18.3205C10.2862 18.3205 10.5734 18.2435 10.8266 18.0973L16.6564 14.7661C16.9093 14.62 17.1194 14.41 17.2656 14.1571C17.4118 13.9042 17.4889 13.6174 17.4892 13.3253V6.6627Z" stroke="#EC003F" stroke-width="1.66564" stroke-linecap="round" stroke-linejoin="round"/>
<path d="M2.74829 5.82959L9.99384 9.9937L17.2394 5.82959" stroke="#EC003F" stroke-width="1.66564" stroke-linecap="round" stroke-linejoin="round"/>
<path d="M9.9939 18.3219V9.99365" stroke="#EC003F" stroke-width="1.66564" stroke-linecap="round" stroke-linejoin="round"/>
</g>
<defs>
<clipPath id="clip0_58_606">
<rect width="19.9877" height="19.9877" fill="white"/>
</clipPath>
</defs>
</svg>
