<svg width="52" height="52" viewBox="0 0 52 52" fill="none" xmlns="http://www.w3.org/2000/svg">
<path d="M26 52C40.3594 52 52 40.3594 52 26C52 11.6406 40.3594 0 26 0C11.6406 0 0 11.6406 0 26C0 40.3594 11.6406 52 26 52Z" fill="#1F2937"/>
<path d="M19.8201 19.3497C20.1904 18.5234 20.7692 17.4861 21.2918 16.7424C21.4652 16.4958 21.7463 16.392 21.9488 16.0896C21.9775 15.7022 21.9504 15.5319 22.3057 15.3107C23.6836 14.453 25.705 14.4242 27.261 14.6614C27.8828 14.7562 28.1948 14.9935 28.5173 15.4844C29.888 15.7344 30.1178 16.1341 30.8917 17.2185C31.1163 17.1992 31.1507 17.1628 31.3443 17.3241C31.7182 17.6359 32.2268 18.2054 32.228 18.7078C35.1909 18.5527 37.0485 19.2073 38.8344 21.6275C39.2112 21.6316 39.3757 21.8225 39.63 22.0839C41.417 23.9214 42.2435 27.5576 42.1945 30.0508C42.1759 31.0071 42.0592 32.4396 41.3284 33.1465C39.8114 34.6146 29.671 34.9738 27.2581 35.0079C25.1662 35.0425 23.0736 35.002 20.9845 34.8865C19.569 34.8172 12.7715 34.367 12.6042 32.6354C11.9861 32.3655 11.3627 32.0073 10.997 31.418C9.01217 28.2194 9.46267 21.9362 12.6507 19.6355C14.2564 18.4767 17.939 19 19.8201 19.3497Z" fill="#F7F9FC"/>
<path d="M38.8343 21.6274C39.2111 21.6316 39.3756 21.8224 39.6299 22.0838C41.417 23.9214 42.2434 27.5576 42.1944 30.0507C42.1758 31.007 42.0591 32.4395 41.3283 33.1464C39.8113 34.6145 29.6709 34.9737 27.258 35.0079C25.1661 35.0424 23.0735 35.002 20.9844 34.8864C19.5689 34.8171 12.7714 34.3669 12.6041 32.6354C18.4521 34.3337 26.8457 33.9067 32.9033 33.4315C34.7656 33.2854 37.7687 32.9635 39.4998 32.2216C40.0148 31.9856 40.4027 31.3324 40.5228 30.7998C41.2496 27.5819 40.3654 24.4066 38.8343 21.6274Z" fill="#B8B8B8"/>
<path d="M30.8917 17.2183C31.1163 17.199 31.1507 17.1626 31.3443 17.3239C31.7182 17.6357 32.2268 18.2052 32.2279 18.7076C32.12 18.7379 32.0291 18.7368 31.9159 18.7452C31.5899 18.5844 31.1134 17.5987 30.8917 17.2183Z" fill="#1F2937"/>
<path d="M21.7031 19.6995C21.6971 19.1771 21.6811 17.7602 22.0783 17.3449C22.1608 17.2587 22.6919 17.586 23.1507 17.4825C25.2876 17.0002 26.1365 16.4557 28.3382 16.8806C28.452 16.8202 28.5342 16.7795 28.6526 16.7283C29.0434 16.877 29.4517 17.4978 29.6692 17.8539C29.8634 18.341 29.8693 18.5952 29.9247 19.1187L29.8407 19.1302C29.349 19.2005 28.3913 19.4653 27.888 19.6155C26.214 20.1145 24.9108 20.1879 23.1873 19.9075C22.6799 19.8666 22.2043 19.782 21.7031 19.6995Z" fill="#1F2937"/>
<path d="M23.1874 19.9076C23.1958 19.5548 23.2658 18.9147 23.4405 18.6057C23.5199 18.4653 24.2529 18.7179 24.486 18.6801C25.6697 18.4881 26.8172 18.084 28.0065 17.8995C28.5401 17.8168 29.1689 17.9687 29.6693 17.854C29.8635 18.3411 29.8694 18.5953 29.9248 19.1188L29.8408 19.1303C29.3491 19.2006 28.3914 19.4655 27.8881 19.6156C26.2141 20.1146 24.9109 20.188 23.1874 19.9076Z" fill="#1F2937"/>
<path d="M14.7916 21.7161C20.0448 23.5816 25.994 23.642 31.4201 22.4454C33.4493 21.9979 34.831 21.4148 36.7265 20.8198C30.96 23.8552 24.334 25.0973 18.001 23.1466C16.8288 22.7855 15.7738 22.3174 14.6495 21.8289L14.7916 21.7161Z" fill="#1F2937"/>
<path d="M17.4428 27.4522C17.539 26.5255 17.8525 25.411 18.2567 24.5708C18.1375 25.4219 18.0548 26.7138 17.9254 27.4615C17.9424 27.9496 17.8785 28.8324 17.8678 29.3644C17.8403 30.5448 17.856 31.7259 17.9148 32.9052C17.4738 31.6724 17.1442 28.7011 17.4428 27.4522Z" fill="#1F2937"/>
<path d="M17.4427 27.4522C17.5389 26.5255 17.8525 25.411 18.2566 24.5708C18.1374 25.4219 18.0548 26.7138 17.9254 27.4615C17.8886 27.1523 17.9204 26.5942 17.8658 26.3733C17.6228 26.6341 17.7137 27.1146 17.4427 27.4522Z" fill="#1F2937"/>
<path d="M32.4 24.3325C32.4356 24.3733 32.4677 24.4075 32.4939 24.4562C33.8902 27.0706 33.8523 29.2956 33.1985 32.0301C33.1553 32.116 33.125 32.1618 33.0737 32.2429C33.0317 32.1599 33.1822 29.9037 33.1717 29.5705C33.1139 27.7891 32.8054 26.0645 32.4 24.3325Z" fill="#1F2937"/>
<path d="M13.8312 21.3584C14.1718 21.4286 14.4725 21.5766 14.7916 21.7158L14.6495 21.8286C14.375 21.7095 14.0891 21.5177 13.8312 21.3584Z" fill="#1F2937"/>
</svg>
