<svg width="264" height="195" viewBox="0 0 264 195" fill="none" xmlns="http://www.w3.org/2000/svg">
<path d="M93.8439 29.735C96.1306 24.6331 99.704 18.2289 102.931 13.6372C104.001 12.1143 105.737 11.4737 106.987 9.60617C107.164 7.21435 106.997 6.16283 109.191 4.79731C117.698 -0.498056 130.179 -0.676315 139.786 0.788598C143.624 1.37377 145.551 2.8387 147.542 5.86972C156.005 7.41349 157.424 9.8813 162.202 16.5764C163.589 16.4572 163.801 16.2325 164.997 17.2282C167.305 19.1533 170.445 22.6698 170.452 25.7714C188.746 24.8138 200.215 28.8557 211.242 43.7983C213.568 43.8239 214.583 45.0021 216.153 46.6161C227.187 57.9613 232.29 80.4118 231.987 95.8049C231.872 101.709 231.152 110.554 226.64 114.918C217.273 123.982 154.665 126.2 139.768 126.411C126.852 126.625 113.932 126.375 101.033 125.661C92.2937 125.234 50.3251 122.454 49.2923 111.763C45.4759 110.096 41.6271 107.885 39.3692 104.246C27.1144 84.4975 29.8959 45.7043 49.5793 31.4992C59.493 24.3446 82.2298 27.5758 93.8439 29.735Z" fill="#1F2937"/>
<path d="M211.241 43.7975C213.568 43.8231 214.583 45.0013 216.153 46.6153C227.187 57.9605 232.29 80.411 231.987 95.8041C231.872 101.708 231.152 110.553 226.64 114.917C217.273 123.982 154.665 126.2 139.768 126.41C126.852 126.624 113.932 126.374 101.033 125.661C92.2936 125.233 50.325 122.453 49.2922 111.762C85.3983 122.248 137.222 119.612 174.622 116.677C186.12 115.775 204.662 113.788 215.35 109.208C218.53 107.751 220.925 103.717 221.667 100.429C226.154 80.5615 220.694 60.9566 211.241 43.7975Z" fill="#B8B8B8"/>
<path d="M162.202 16.5758C163.588 16.4566 163.801 16.2319 164.996 17.2276C167.305 19.1528 170.445 22.6692 170.452 25.7708C169.786 25.9577 169.224 25.9512 168.525 26.0027C166.512 25.0102 163.57 18.9245 162.202 16.5758Z" fill="#F7F9FC"/>
<path d="M105.471 31.8939C105.433 28.6688 105.334 19.9207 107.787 17.3564C108.296 16.8245 111.575 18.8451 114.408 18.2059C127.602 15.2282 132.843 11.8666 146.437 14.4896C147.139 14.1169 147.647 13.8659 148.378 13.5494C150.79 14.4676 153.311 18.3003 154.654 20.4991C155.853 23.5063 155.889 25.076 156.232 28.308L155.713 28.3793C152.677 28.8132 146.764 30.4485 143.657 31.3754C133.322 34.4564 125.275 34.9094 114.634 33.1784C111.501 32.9256 108.565 32.4035 105.471 31.8939Z" fill="#F7F9FC"/>
<path d="M114.634 33.1783C114.686 31 115.118 27.0479 116.197 25.14C116.687 24.2733 121.212 25.8329 122.652 25.5995C129.96 24.4141 137.045 21.9189 144.388 20.7799C147.683 20.2692 151.565 21.207 154.654 20.499C155.853 23.5062 155.889 25.0759 156.232 28.3079L155.713 28.3792C152.677 28.8131 146.764 30.4484 143.657 31.3753C133.322 34.4564 125.275 34.9094 114.634 33.1783Z" fill="#F7F9FC"/>
<path d="M62.7975 44.3452C95.2316 55.8632 131.962 56.2362 165.465 48.8479C177.993 46.0848 186.524 42.4848 198.227 38.8114C162.623 57.5521 121.713 65.2212 82.6127 53.1775C75.3757 50.9481 68.8617 48.0575 61.9203 45.0416L62.7975 44.3452Z" fill="#F7F9FC"/>
<path d="M79.1665 79.7614C79.7604 74.0397 81.6963 67.1584 84.1915 61.971C83.4554 67.2261 82.9451 75.2021 82.1464 79.8186C82.2509 82.8324 81.8565 88.2826 81.7906 91.5675C81.621 98.8557 81.7179 106.148 82.0809 113.429C79.3578 105.817 77.3228 87.472 79.1665 79.7614Z" fill="#F7F9FC"/>
<path d="M79.1665 79.7614C79.7603 74.0397 81.6963 67.1584 84.1914 61.971C83.4554 67.2261 82.9451 75.2021 82.1464 79.8186C81.9195 77.9094 82.1154 74.4639 81.7784 73.1001C80.2781 74.7102 80.8396 77.6767 79.1665 79.7614Z" fill="#F7F9FC"/>
<path d="M171.514 60.5005C171.734 60.7522 171.932 60.9636 172.094 61.2643C180.715 77.4057 180.481 91.143 176.444 108.027C176.178 108.557 175.991 108.839 175.674 109.341C175.414 108.828 176.343 94.8979 176.279 92.8406C175.922 81.8418 174.017 71.1939 171.514 60.5005Z" fill="#F7F9FC"/>
<path d="M56.8678 42.1373C58.9708 42.5709 60.8272 43.4848 62.7977 44.3441L61.9205 45.0405C60.2254 44.3052 58.4602 43.1211 56.8678 42.1373Z" fill="#F7F9FC"/>
<path d="M40.3645 185.485H35.7054L46.1742 156.394H51.2452L61.7139 185.485H57.0548L48.8304 161.678H48.6031L40.3645 185.485ZM41.1457 174.093H56.2594V177.786H41.1457V174.093ZM69.3012 156.394V185.485H65.054V156.394H69.3012ZM78.7421 156.394V185.485H74.495V156.394H78.7421ZM94.3427 185.485V156.394H104.712C106.975 156.394 108.85 156.806 110.337 157.63C111.824 158.454 112.936 159.581 113.675 161.01C114.414 162.431 114.783 164.031 114.783 165.812C114.783 167.601 114.409 169.211 113.661 170.641C112.922 172.062 111.805 173.188 110.309 174.022C108.822 174.846 106.952 175.258 104.698 175.258H97.5672V171.536H104.3C105.73 171.536 106.89 171.29 107.78 170.797C108.67 170.295 109.324 169.614 109.74 168.752C110.157 167.89 110.365 166.91 110.365 165.812C110.365 164.713 110.157 163.738 109.74 162.885C109.324 162.033 108.666 161.366 107.766 160.883C106.876 160.4 105.702 160.158 104.243 160.158H98.7319V185.485H94.3427ZM125.222 185.968C123.839 185.968 122.589 185.712 121.472 185.201C120.354 184.68 119.469 183.927 118.816 182.942C118.172 181.957 117.85 180.75 117.85 179.32C117.85 178.089 118.086 177.076 118.56 176.28C119.033 175.485 119.673 174.855 120.478 174.391C121.282 173.927 122.182 173.577 123.176 173.34C124.171 173.103 125.184 172.923 126.216 172.8C127.523 172.649 128.584 172.526 129.398 172.431C130.212 172.327 130.804 172.161 131.174 171.934C131.543 171.706 131.728 171.337 131.728 170.826V170.726C131.728 169.486 131.377 168.525 130.676 167.843C129.985 167.161 128.953 166.82 127.58 166.82C126.15 166.82 125.023 167.137 124.199 167.772C123.385 168.397 122.821 169.093 122.509 169.86L118.517 168.951C118.991 167.625 119.682 166.555 120.591 165.741C121.51 164.917 122.566 164.32 123.759 163.951C124.952 163.572 126.207 163.383 127.523 163.383C128.394 163.383 129.318 163.487 130.293 163.695C131.278 163.894 132.196 164.263 133.049 164.803C133.91 165.343 134.616 166.115 135.165 167.118C135.714 168.113 135.989 169.405 135.989 170.996V185.485H131.841V182.502H131.671C131.396 183.051 130.984 183.591 130.435 184.121C129.886 184.652 129.18 185.092 128.318 185.442C127.457 185.793 126.425 185.968 125.222 185.968ZM126.145 182.559C127.319 182.559 128.323 182.327 129.157 181.863C129.999 181.399 130.639 180.793 131.074 180.045C131.519 179.287 131.742 178.477 131.742 177.616V174.803C131.59 174.955 131.297 175.097 130.861 175.229C130.435 175.352 129.947 175.461 129.398 175.556C128.849 175.641 128.314 175.722 127.793 175.797C127.272 175.864 126.836 175.92 126.486 175.968C125.662 176.072 124.909 176.247 124.228 176.493C123.555 176.74 123.015 177.095 122.608 177.559C122.211 178.013 122.012 178.619 122.012 179.377C122.012 180.428 122.4 181.223 123.176 181.763C123.953 182.294 124.943 182.559 126.145 182.559ZM150.316 185.925C148.204 185.925 146.386 185.447 144.862 184.491C143.347 183.525 142.182 182.194 141.367 180.499C140.553 178.804 140.146 176.863 140.146 174.675C140.146 172.459 140.562 170.504 141.396 168.809C142.229 167.104 143.403 165.774 144.919 164.817C146.434 163.861 148.219 163.383 150.274 163.383C151.931 163.383 153.408 163.69 154.705 164.306C156.003 164.912 157.049 165.764 157.845 166.863C158.65 167.961 159.128 169.244 159.279 170.712H155.146C154.919 169.689 154.398 168.809 153.583 168.07C152.778 167.331 151.699 166.962 150.345 166.962C149.161 166.962 148.124 167.275 147.234 167.9C146.353 168.515 145.667 169.396 145.174 170.542C144.682 171.678 144.436 173.023 144.436 174.576C144.436 176.167 144.677 177.54 145.16 178.695C145.643 179.85 146.325 180.745 147.205 181.38C148.096 182.014 149.142 182.331 150.345 182.331C151.15 182.331 151.879 182.185 152.532 181.891C153.195 181.588 153.749 181.157 154.194 180.598C154.649 180.04 154.966 179.367 155.146 178.581H159.279C159.128 179.992 158.669 181.252 157.901 182.36C157.134 183.468 156.107 184.339 154.819 184.973C153.541 185.608 152.04 185.925 150.316 185.925ZM167.207 178.084L167.179 172.9H167.918L176.611 163.667H181.696L171.781 174.178H171.114L167.207 178.084ZM163.301 185.485V156.394H167.548V185.485H163.301ZM177.08 185.485L169.267 175.116L172.193 172.147L182.293 185.485H177.08ZM193.552 185.925C191.402 185.925 189.551 185.466 187.998 184.547C186.454 183.619 185.261 182.317 184.418 180.641C183.585 178.956 183.168 176.981 183.168 174.718C183.168 172.483 183.585 170.513 184.418 168.809C185.261 167.104 186.435 165.774 187.941 164.817C189.456 163.861 191.227 163.383 193.254 163.383C194.485 163.383 195.678 163.586 196.833 163.993C197.988 164.401 199.025 165.04 199.944 165.911C200.862 166.782 201.587 167.914 202.117 169.306C202.647 170.688 202.913 172.369 202.913 174.348V175.854H185.569V172.672H198.751C198.751 171.555 198.523 170.565 198.069 169.704C197.614 168.832 196.975 168.146 196.151 167.644C195.337 167.142 194.38 166.891 193.282 166.891C192.089 166.891 191.047 167.185 190.157 167.772C189.276 168.349 188.594 169.107 188.111 170.045C187.638 170.973 187.401 171.981 187.401 173.07V175.556C187.401 177.014 187.657 178.255 188.168 179.277C188.689 180.3 189.414 181.081 190.342 181.621C191.27 182.152 192.354 182.417 193.594 182.417C194.399 182.417 195.133 182.303 195.796 182.076C196.459 181.839 197.032 181.489 197.515 181.025C197.998 180.561 198.367 179.988 198.623 179.306L202.643 180.03C202.321 181.214 201.743 182.251 200.91 183.141C200.086 184.022 199.049 184.708 197.799 185.201C196.558 185.684 195.143 185.925 193.552 185.925ZM215.273 185.911C213.511 185.911 211.939 185.461 210.557 184.562C209.184 183.652 208.104 182.36 207.318 180.684C206.542 178.998 206.153 176.976 206.153 174.618C206.153 172.26 206.546 170.243 207.332 168.567C208.128 166.891 209.217 165.608 210.599 164.718C211.982 163.828 213.549 163.383 215.301 163.383C216.655 163.383 217.744 163.61 218.568 164.064C219.401 164.509 220.045 165.03 220.5 165.627C220.964 166.223 221.324 166.749 221.579 167.204H221.835V156.394H226.082V185.485H221.935V182.09H221.579C221.324 182.554 220.954 183.084 220.471 183.681C219.998 184.277 219.345 184.798 218.511 185.243C217.678 185.688 216.598 185.911 215.273 185.911ZM216.21 182.289C217.432 182.289 218.464 181.967 219.307 181.323C220.159 180.67 220.803 179.765 221.238 178.61C221.684 177.455 221.906 176.11 221.906 174.576C221.906 173.061 221.688 171.735 221.253 170.598C220.817 169.462 220.178 168.577 219.335 167.942C218.492 167.308 217.451 166.991 216.21 166.991C214.932 166.991 213.866 167.322 213.014 167.985C212.162 168.648 211.518 169.552 211.082 170.698C210.656 171.844 210.443 173.136 210.443 174.576C210.443 176.034 210.661 177.346 211.096 178.51C211.532 179.675 212.176 180.598 213.028 181.28C213.89 181.953 214.951 182.289 216.21 182.289Z" fill="#1F2937"/>
</svg>
