<svg width="16" height="16" viewBox="0 0 16 16" fill="none" xmlns="http://www.w3.org/2000/svg">
<g clip-path="url(#clip0_118_418)">
<path d="M8.55045 1.45272C8.3768 1.37351 8.18816 1.33252 7.9973 1.33252C7.80644 1.33252 7.61781 1.37351 7.44416 1.45272L1.73277 4.05183C1.61451 4.10398 1.51396 4.18939 1.44337 4.29765C1.37279 4.40592 1.33521 4.53238 1.33521 4.66163C1.33521 4.79087 1.37279 4.91733 1.44337 5.0256C1.51396 5.13387 1.61451 5.21927 1.73277 5.27142L7.45082 7.8772C7.62447 7.95641 7.81311 7.9974 8.00397 7.9974C8.19483 7.9974 8.38346 7.95641 8.55711 7.8772L14.2752 5.27808C14.3934 5.22594 14.494 5.14053 14.5646 5.03226C14.6352 4.92399 14.6727 4.79754 14.6727 4.66829C14.6727 4.53904 14.6352 4.41259 14.5646 4.30432C14.494 4.19605 14.3934 4.11064 14.2752 4.0585L8.55045 1.45272Z" stroke="#1F2937" stroke-width="1.33288" stroke-linecap="round" stroke-linejoin="round"/>
<path d="M1.33289 7.99707C1.33257 8.12454 1.36882 8.24942 1.43733 8.35691C1.50584 8.46441 1.60374 8.54999 1.71942 8.60353L7.45081 11.2093C7.62355 11.2875 7.81099 11.328 8.00062 11.328C8.19025 11.328 8.37769 11.2875 8.55043 11.2093L14.2685 8.6102C14.3865 8.55717 14.4864 8.47097 14.5563 8.3621C14.6261 8.25323 14.6627 8.1264 14.6617 7.99707" stroke="#1F2937" stroke-width="1.33288" stroke-linecap="round" stroke-linejoin="round"/>
<path d="M1.33289 11.3296C1.33257 11.4571 1.36882 11.5819 1.43733 11.6894C1.50584 11.7969 1.60374 11.8825 1.71942 11.9361L7.45081 14.5418C7.62355 14.6201 7.81099 14.6605 8.00062 14.6605C8.19025 14.6605 8.37769 14.6201 8.55043 14.5418L14.2685 11.9427C14.3865 11.8897 14.4864 11.8035 14.5563 11.6946C14.6261 11.5858 14.6627 11.4589 14.6617 11.3296" stroke="#1F2937" stroke-width="1.33288" stroke-linecap="round" stroke-linejoin="round"/>
</g>
<defs>
<clipPath id="clip0_118_418">
<rect width="15.9946" height="15.9946" fill="white"/>
</clipPath>
</defs>
</svg>
