<svg width="20" height="20" viewBox="0 0 20 20" fill="none" xmlns="http://www.w3.org/2000/svg">
<g clip-path="url(#clip0_58_596)">
<path d="M5.8297 13.5751C7.66191 13.5751 9.16099 12.051 9.16099 10.2022C9.16099 9.2361 8.68628 8.32 7.73686 7.54547C6.78744 6.77095 6.07122 5.62165 5.8297 4.41406C5.58818 5.62165 4.88028 6.77928 3.92254 7.54547C2.96479 8.31167 2.49841 9.24443 2.49841 10.2022C2.49841 12.051 3.99749 13.5751 5.8297 13.5751Z" stroke="#9810FA" stroke-width="1.66564" stroke-linecap="round" stroke-linejoin="round"/>
<path d="M10.4602 5.49664C11.033 4.58147 11.439 3.57202 11.6595 2.51514C12.0759 4.59719 13.3251 6.59596 14.9908 7.92848C16.6564 9.26099 17.4892 10.8434 17.4892 12.509C17.494 13.6602 17.1568 14.7869 16.5205 15.7462C15.8841 16.7056 14.9773 17.4544 13.9149 17.8978C12.8524 18.3411 11.6823 18.459 10.5528 18.2365C9.42328 18.0141 8.38526 17.4612 7.57031 16.6481" stroke="#9810FA" stroke-width="1.66564" stroke-linecap="round" stroke-linejoin="round"/>
</g>
<defs>
<clipPath id="clip0_58_596">
<rect width="19.9877" height="19.9877" fill="white"/>
</clipPath>
</defs>
</svg>
