<svg width="134" height="134" viewBox="0 0 134 134" fill="none" xmlns="http://www.w3.org/2000/svg">
<path d="M67 134C104.003 134 134 104.003 134 67C134 29.9969 104.003 0 67 0C29.9969 0 0 29.9969 0 67C0 104.003 29.9969 134 67 134Z" fill="#1F2937"/>
<path d="M51.0747 49.8623C52.0291 47.7328 53.5205 45.0599 54.8673 43.1435C55.3141 42.5078 56.0384 42.2405 56.5603 41.461C56.6342 40.4627 56.5643 40.0239 57.4799 39.4539C61.0308 37.2438 66.2398 37.1694 70.2495 37.7808C71.8517 38.025 72.6558 38.6365 73.4869 39.9015C77.0189 40.5459 77.6111 41.5758 79.6056 44.3702C80.1842 44.3205 80.2729 44.2267 80.7719 44.6422C81.7353 45.4457 83.0459 46.9134 83.0489 48.2079C90.6841 47.8083 95.4711 49.4952 100.073 55.7319C101.044 55.7425 101.468 56.2343 102.123 56.908C106.728 61.6431 108.858 71.0133 108.732 77.438C108.684 79.9023 108.383 83.5938 106.5 85.4154C102.591 89.1986 76.4598 90.1243 70.242 90.2122C64.8512 90.3013 59.4588 90.197 54.0752 89.8993C50.4276 89.7207 32.9111 88.5606 32.48 84.0985C30.8872 83.4028 29.2808 82.4799 28.3384 80.9613C23.2236 72.7186 24.3845 56.5274 32.5998 50.5986C36.7375 47.6124 46.2272 48.9611 51.0747 49.8623Z" fill="#F7F9FC"/>
<path d="M100.073 55.7315C101.044 55.7422 101.468 56.234 102.123 56.9076C106.728 61.6428 108.858 71.013 108.732 77.4377C108.684 79.902 108.383 83.5935 106.5 85.4151C102.591 89.1982 76.4597 90.1239 70.2419 90.2119C64.8511 90.301 59.4587 90.1967 54.0752 89.8989C50.4276 89.7204 32.911 88.5602 32.4799 84.0982C47.5496 88.4746 69.1793 87.3744 84.7893 86.1496C89.5883 85.7731 97.3272 84.9436 101.788 83.0319C103.115 82.4238 104.115 80.7405 104.424 79.3681C106.297 71.0758 104.018 62.8933 100.073 55.7315Z" fill="#B8B8B8"/>
<path d="M79.6054 44.37C80.1841 44.3202 80.2728 44.2264 80.7718 44.642C81.7352 45.4455 83.0458 46.9132 83.0488 48.2077C82.7707 48.2857 82.5363 48.283 82.2447 48.3045C81.4045 47.8902 80.1766 45.3502 79.6054 44.37Z" fill="#1F2937"/>
<path d="M55.9273 50.7633C55.9117 49.4172 55.8705 45.766 56.8942 44.6957C57.1066 44.4737 58.4752 45.3171 59.6576 45.0503C65.1642 43.8075 67.3517 42.4044 73.0254 43.4992C73.3185 43.3436 73.5305 43.2389 73.8356 43.1068C74.8426 43.49 75.8946 45.0897 76.4553 46.0074C76.9558 47.2625 76.9708 47.9177 77.1136 49.2666L76.8971 49.2964C75.6301 49.4775 73.1622 50.16 71.8651 50.5469C67.5516 51.8328 64.1933 52.0219 59.7518 51.2994C58.4444 51.1939 57.2187 50.976 55.9273 50.7633Z" fill="#1F2937"/>
<path d="M59.7519 51.2994C59.7737 50.3902 59.954 48.7407 60.4042 47.9444C60.6087 47.5827 62.4975 48.2336 63.0983 48.1362C66.1486 47.6414 69.1057 46.6 72.1703 46.1246C73.5455 45.9115 75.1657 46.3029 76.4553 46.0074C76.9558 47.2625 76.9708 47.9177 77.1136 49.2666L76.8972 49.2964C75.6302 49.4775 73.1623 50.16 71.8652 50.5468C67.5516 51.8328 64.1933 52.0219 59.7519 51.2994Z" fill="#1F2937"/>
<path d="M38.1167 55.9601C51.6538 60.7674 66.9843 60.9232 80.9671 57.8395C86.196 56.6862 89.7566 55.1837 94.6413 53.6505C79.7813 61.4723 62.7066 64.6732 46.387 59.6465C43.3665 58.716 40.6477 57.5096 37.7506 56.2508L38.1167 55.9601Z" fill="#1F2937"/>
<path d="M44.9487 70.7419C45.1965 68.3538 46.0045 65.4817 47.046 63.3167C46.7387 65.51 46.5258 68.839 46.1924 70.7658C46.236 72.0236 46.0714 74.2984 46.0439 75.6694C45.9731 78.7113 46.0136 81.7549 46.1651 84.7939C45.0285 81.6169 44.1792 73.9601 44.9487 70.7419Z" fill="#1F2937"/>
<path d="M44.9487 70.7419C45.1965 68.3538 46.0046 65.4817 47.046 63.3167C46.7388 65.51 46.5258 68.839 46.1924 70.7658C46.0977 69.9689 46.1795 68.5308 46.0388 67.9617C45.4127 68.6337 45.647 69.8718 44.9487 70.7419Z" fill="#1F2937"/>
<path d="M83.4922 62.7029C83.5839 62.808 83.6666 62.8962 83.7342 63.0217C87.3323 69.7587 87.2346 75.4923 85.5498 82.539C85.4386 82.7603 85.3604 82.8782 85.2282 83.0875C85.1199 82.8736 85.5077 77.0594 85.4807 76.2008C85.3319 71.6102 84.5368 67.166 83.4922 62.7029Z" fill="#1F2937"/>
<path d="M35.6419 55.0386C36.5196 55.2196 37.2944 55.6011 38.1168 55.9597L37.7507 56.2503C37.0433 55.9434 36.3065 55.4493 35.6419 55.0386Z" fill="#1F2937"/>
</svg>
